<?xml version="1.0" standalone="no"?>
<!DOCTYPE svg PUBLIC "-//W3C//DTD SVG 20010904//EN"
 "http://www.w3.org/TR/2001/REC-SVG-20010904/DTD/svg10.dtd">
<svg version="1.0" xmlns="http://www.w3.org/2000/svg"
 width="255.000000pt" height="228.000000pt" viewBox="0 0 255.000000 228.000000"
 preserveAspectRatio="xMidYMid meet">

<g transform="translate(0.000000,228.000000) scale(0.100000,-0.100000)"
fill="#d33797" stroke="none">
<path d="M1165 2250 c-95 -37 -110 -61 -285 -460 -89 -200 -166 -385 -172
-413 -8 -39 -7 -63 6 -118 22 -89 15 -101 -72 -129 -44 -14 -84 -35 -110 -58
-44 -40 -460 -599 -498 -670 -87 -163 24 -370 209 -389 67 -6 785 72 850 93
28 9 69 36 101 65 65 60 90 62 137 13 37 -39 100 -78 139 -87 74 -17 773 -88
821 -84 92 8 170 61 215 147 25 47 26 191 2 236 -26 47 -445 614 -487 657 -41
44 -91 72 -143 82 -51 10 -72 36 -64 77 15 76 18 157 6 195 -21 62 -296 690
-325 738 -63 108 -205 153 -330 105z m143 -197 c23 -21 322 -698 322 -731 0
-12 -9 -31 -20 -42 -19 -19 -33 -20 -342 -20 -356 0 -358 0 -358 64 0 43 285
694 317 724 29 27 54 28 81 5z m230 -1019 c43 -30 31 -64 -101 -288 -100 -173
-127 -211 -151 -219 -22 -7 -33 -5 -53 10 -26 18 -248 396 -259 437 -3 14 3
32 16 49 l21 27 253 0 c211 0 255 -2 274 -16z m-781 -116 c42 -46 313 -527
313 -556 0 -62 -10 -65 -423 -111 -426 -47 -429 -47 -435 20 -3 32 16 61 208
325 116 159 225 301 241 317 36 33 69 35 96 5z m1119 -1 c34 -36 439 -596 447
-618 13 -33 5 -53 -27 -74 -23 -16 -48 -14 -403 25 -236 27 -386 48 -400 56
-51 32 -45 47 121 339 87 151 165 279 174 285 20 12 72 5 88 -13z"/>
</g>
</svg>
